<svg width="90" height="27" viewBox="0 0 90 27" fill="none" xmlns="http://www.w3.org/2000/svg">
<path d="M8.676 3.536H9.036C9.516 3.536 9.756 3.764 9.756 4.22V25.28C9.756 25.472 9.684 25.64 9.54 25.784C9.42 25.928 9.252 26 9.036 26H8.676C8.46 26 8.28 25.928 8.136 25.784C8.016 25.64 7.956 25.472 7.956 25.28V4.22C7.956 3.764 8.196 3.536 8.676 3.536ZM0.9 0.799998H16.884C17.1 0.799998 17.268 0.871999 17.388 1.016C17.532 1.16 17.604 1.328 17.604 1.52V1.916C17.604 2.348 17.364 2.564 16.884 2.564H0.9C0.42 2.564 0.18 2.348 0.18 1.916V1.52C0.18 1.328 0.252 1.16 0.396 1.016C0.54 0.871999 0.708 0.799998 0.9 0.799998ZM21.384 0.799998H21.708C21.9 0.799998 22.068 0.871999 22.212 1.016C22.356 1.16 22.428 1.328 22.428 1.52V25.28C22.428 25.472 22.356 25.64 22.212 25.784C22.068 25.928 21.9 26 21.708 26H21.384C21.168 26 20.988 25.928 20.844 25.784C20.724 25.64 20.664 25.472 20.664 25.28V1.52C20.664 1.328 20.724 1.16 20.844 1.016C20.988 0.871999 21.168 0.799998 21.384 0.799998ZM31.147 1.52C32.011 1.112 32.767 0.859999 33.415 0.763999C34.087 0.643999 34.735 0.583999 35.359 0.583999C36.007 0.583999 36.655 0.643999 37.303 0.763999C37.951 0.859999 38.659 1.088 39.427 1.448C40.219 1.784 40.927 2.228 41.551 2.78C42.175 3.308 42.727 4.052 43.207 5.012C43.687 5.948 43.987 7.04 44.107 8.288C44.107 8.816 43.867 9.08 43.387 9.08H43.063C42.631 9.08 42.391 8.864 42.343 8.432C42.223 7.424 41.971 6.536 41.587 5.768C41.203 5 40.759 4.412 40.255 4.004C39.751 3.596 39.175 3.26 38.527 2.996C37.567 2.588 36.667 2.384 35.827 2.384C35.011 2.384 34.327 2.432 33.775 2.528C33.247 2.624 32.647 2.828 31.975 3.14C31.303 3.452 30.715 3.872 30.211 4.4C29.707 4.904 29.275 5.624 28.915 6.56C28.579 7.496 28.411 8.576 28.411 9.8V16.856C28.411 18.08 28.603 19.16 28.987 20.096C29.371 21.032 29.827 21.764 30.355 22.292C30.907 22.796 31.543 23.204 32.263 23.516C33.415 24.02 34.495 24.272 35.503 24.272C36.511 24.272 37.363 24.188 38.059 24.02C38.779 23.828 39.487 23.504 40.183 23.048C41.671 22.112 42.415 20.372 42.415 17.828C42.415 17.42 42.475 17.156 42.595 17.036C42.739 16.916 42.919 16.856 43.135 16.856H43.423C43.903 16.856 44.143 17.096 44.143 17.576C44.143 19.04 43.903 20.324 43.423 21.428C42.967 22.532 42.427 23.372 41.803 23.948C41.179 24.5 40.447 24.944 39.607 25.28C38.311 25.784 37.171 26.036 36.187 26.036C35.227 26.036 34.387 25.976 33.667 25.856C32.971 25.736 32.179 25.472 31.291 25.064C30.427 24.656 29.659 24.14 28.987 23.516C28.339 22.892 27.787 22.016 27.331 20.888C26.875 19.736 26.647 18.428 26.647 16.964V9.656C26.647 8.144 26.863 6.812 27.295 5.66C27.751 4.508 28.291 3.632 28.915 3.032C29.563 2.408 30.307 1.904 31.147 1.52ZM62.2313 0.799998H62.6273C62.8433 0.799998 63.0233 0.871999 63.1673 1.016C63.3833 1.256 63.4073 1.532 63.2393 1.844L56.9393 13.148L63.7073 24.956C63.7793 25.1 63.8153 25.232 63.8153 25.352C63.8153 25.784 63.5753 26 63.0953 26H62.6993C62.4353 26 62.2553 25.928 62.1593 25.784L55.9673 14.948L50.4953 25.028C50.0633 25.748 49.5833 26.108 49.0553 26.108C48.1433 26.108 47.6873 25.628 47.6873 24.668V1.52C47.6873 1.328 47.7473 1.16 47.8673 1.016C48.0113 0.871999 48.1913 0.799998 48.4073 0.799998H48.7673C48.9833 0.799998 49.1513 0.871999 49.2713 1.016C49.4153 1.16 49.4873 1.328 49.4873 1.52V23.12L56.6153 10.088L61.7273 1.016C61.8233 0.871999 61.9913 0.799998 62.2313 0.799998ZM67.966 0.799998H68.29C68.482 0.799998 68.65 0.871999 68.794 1.016C68.938 1.16 69.01 1.328 69.01 1.52V25.28C69.01 25.472 68.938 25.64 68.794 25.784C68.65 25.928 68.482 26 68.29 26H67.966C67.75 26 67.57 25.928 67.426 25.784C67.306 25.64 67.246 25.472 67.246 25.28V1.52C67.246 1.328 67.306 1.16 67.426 1.016C67.57 0.871999 67.75 0.799998 67.966 0.799998ZM80.4651 3.536H80.8251C81.3051 3.536 81.5451 3.764 81.5451 4.22V25.28C81.5451 25.472 81.4731 25.64 81.3291 25.784C81.2091 25.928 81.0411 26 80.8251 26H80.4651C80.2491 26 80.0691 25.928 79.9251 25.784C79.8051 25.64 79.7451 25.472 79.7451 25.28V4.22C79.7451 3.764 79.9851 3.536 80.4651 3.536ZM72.6891 0.799998H88.6731C88.8891 0.799998 89.0571 0.871999 89.1771 1.016C89.3211 1.16 89.3931 1.328 89.3931 1.52V1.916C89.3931 2.348 89.1531 2.564 88.6731 2.564H72.6891C72.2091 2.564 71.9691 2.348 71.9691 1.916V1.52C71.9691 1.328 72.0411 1.16 72.1851 1.016C72.3291 0.871999 72.4971 0.799998 72.6891 0.799998Z" fill="black" fill-opacity="0.7"/>
</svg>
