<svg width="16" height="13" viewBox="0 0 16 13" fill="none" xmlns="http://www.w3.org/2000/svg">
<path d="M15.9082 7.7219L13.8964 11.9251C13.7398 12.2522 13.5157 12.5235 13.2462 12.7122C12.9768 12.9008 12.6715 13 12.3608 13H1.25069C0.736167 13 0.415583 12.3198 0.674833 11.7781L2.68661 7.57494C2.84317 7.24784 3.06734 6.97646 3.33678 6.78785C3.60622 6.59925 3.91151 6.5 4.22222 6.5H15.3323C15.8469 6.5 16.1674 7.18023 15.9082 7.7219ZM4.22222 5.41667H13.3333V3.79167C13.3333 2.89419 12.7364 2.16667 12 2.16667H7.55556L5.77778 0H1.33333C0.596945 0 0 0.727526 0 1.625V11.038L1.91881 7.02907C2.39483 6.0345 3.27747 5.41667 4.22222 5.41667Z" fill="white"/>
</svg>
