<svg width="17" height="16" viewBox="0 0 17 16" fill="none" xmlns="http://www.w3.org/2000/svg">
<path d="M8.27461 4.15082L2.83356 9.57464V15.4285C2.83356 15.5801 2.88331 15.7254 2.97186 15.8326C3.06041 15.9398 3.18051 16 3.30574 16L6.61281 15.9896C6.73764 15.9889 6.85713 15.9283 6.94518 15.8212C7.03322 15.7142 7.08264 15.5692 7.08264 15.4181V11.9996C7.08264 11.848 7.13239 11.7026 7.22094 11.5954C7.30949 11.4883 7.42959 11.4281 7.55483 11.4281H9.44357C9.5688 11.4281 9.6889 11.4883 9.77745 11.5954C9.86601 11.7026 9.91576 11.848 9.91576 11.9996V15.4156C9.91556 15.4908 9.92763 15.5654 9.95127 15.6349C9.97492 15.7044 10.0097 15.7677 10.0535 15.8209C10.0974 15.8742 10.1495 15.9164 10.2069 15.9453C10.2643 15.9741 10.3258 15.9889 10.3879 15.9889L13.6938 16C13.8191 16 13.9392 15.9398 14.0277 15.8326C14.1163 15.7254 14.166 15.5801 14.166 15.4285V9.57071L8.72614 4.15082C8.66219 4.08843 8.58252 4.05441 8.50038 4.05441C8.41823 4.05441 8.33857 4.08843 8.27461 4.15082ZM16.8693 7.8373L14.4021 5.37596V0.428619C14.4021 0.314942 14.3648 0.205921 14.2984 0.12554C14.232 0.0451581 14.1419 0 14.048 0H12.3953C12.3014 0 12.2113 0.0451581 12.1449 0.12554C12.0785 0.205921 12.0412 0.314942 12.0412 0.428619V3.02212L9.39901 0.391115C9.14545 0.138579 8.82727 0.000504822 8.4989 0.000504822C8.17053 0.000504822 7.85236 0.138579 7.5988 0.391115L0.128523 7.8373C0.0926624 7.87318 0.0629937 7.91725 0.0412118 7.967C0.0194298 8.01676 0.00596157 8.07122 0.00157656 8.12728C-0.00280846 8.18334 0.0019757 8.23989 0.0156557 8.29371C0.0293357 8.34753 0.0516433 8.39756 0.0813041 8.44094L0.83385 9.54821C0.86343 9.59174 0.899814 9.62778 0.940918 9.65428C0.982022 9.68077 1.02704 9.69719 1.07339 9.7026C1.11975 9.708 1.16653 9.70229 1.21106 9.68579C1.25558 9.66929 1.29699 9.64232 1.33289 9.60643L8.27461 2.68637C8.33857 2.62398 8.41823 2.58996 8.50038 2.58996C8.58252 2.58996 8.66219 2.62398 8.72614 2.68637L15.6682 9.60643C15.704 9.64233 15.7453 9.66933 15.7898 9.68588C15.8343 9.70244 15.881 9.70823 15.9273 9.70292C15.9736 9.69762 16.0186 9.68132 16.0597 9.65495C16.1009 9.62859 16.1373 9.59268 16.1669 9.54928L16.9195 8.44201C16.9491 8.39838 16.9713 8.34809 16.9848 8.29404C16.9983 8.23998 17.0029 8.18323 16.9982 8.12704C16.9936 8.07084 16.9798 8.01632 16.9576 7.96659C16.9355 7.91687 16.9055 7.87293 16.8693 7.8373Z" fill="white"/>
</svg>
